<?xml version="1.0" standalone="no"?><!DOCTYPE svg PUBLIC "-//W3C//DTD SVG 1.1//EN" "http://www.w3.org/Graphics/SVG/1.1/DTD/svg11.dtd"><svg t="1716263571409" class="icon" viewBox="0 0 1024 1024" version="1.1" xmlns="http://www.w3.org/2000/svg" p-id="10653" xmlns:xlink="http://www.w3.org/1999/xlink" width="200" height="200"><path d="M481.834667 97.834667a42.666667 42.666667 0 0 1 60.330666 0l128 128a42.666667 42.666667 0 0 1-60.330666 60.330666L512 188.330667 414.165333 286.165333a42.666667 42.666667 0 0 1-60.330666-60.330666l128-128zM926.165333 542.165333l-128 128a42.666667 42.666667 0 0 1-60.330666-60.330666L835.669333 512l-97.834666-97.834667a42.666667 42.666667 0 0 1 60.330666-60.330666l128 128a42.666667 42.666667 0 0 1 0 60.330666zM353.834667 798.165333l128 128a42.666667 42.666667 0 0 0 60.330666 0l128-128a42.666667 42.666667 0 0 0-60.330666-60.330666L512 835.669333l-97.834667-97.834666a42.666667 42.666667 0 0 0-60.330666 60.330666zM97.834667 542.165333a42.666667 42.666667 0 0 1 0-60.330666l128-128a42.666667 42.666667 0 0 1 60.330666 60.330666L188.330667 512l97.834666 97.834667a42.666667 42.666667 0 1 1-60.330666 60.330666l-128-128z" fill="#2e8555" p-id="10654"></path><path d="M512 640a128 128 0 1 0 0-256 128 128 0 0 0 0 256z" fill="#2e8555" p-id="10655"></path></svg>